<svg width="635" height="200" viewBox="0 0 635 200" fill="none" xmlns="http://www.w3.org/2000/svg">
<path d="M207.96 97.3607C207.96 38.2908 166.736 2.5974 120.486 2.5974H92.5848C42.8153 2.5974 2.5974 43.318 2.5974 102.639C2.5974 161.709 43.8207 197.403 90.0712 197.403H117.721C164.726 197.403 207.96 159.698 207.96 97.3607ZM177.796 95.8525C177.796 53.6238 155.677 21.9522 124.759 9.13281C165.228 11.3951 201.173 44.0721 201.173 97.3607C201.173 156.933 160.955 190.616 118.978 190.616C75.995 190.616 39.5475 158.442 39.5475 104.147C39.5475 65.4378 63.6783 37.788 92.5848 37.788C100.126 37.788 107.164 39.7989 113.699 43.0666C85.2953 46.0829 62.9242 69.7109 62.9242 105.907C62.9242 146.376 89.5685 168.999 117.972 168.999C151.152 168.999 177.796 137.83 177.796 95.8525ZM32.7608 104.147C32.7608 147.884 56.1374 178.55 86.0494 191.119C45.8316 188.856 9.38416 156.179 9.38416 102.639C9.38416 49.0993 44.8261 9.38417 92.3335 9.38417C134.562 9.38417 171.01 41.5584 171.01 95.8525C171.01 134.562 146.879 162.212 117.972 162.212C110.431 162.212 103.142 160.452 96.6066 156.933C125.01 154.168 147.633 130.289 147.633 94.093C147.633 53.6238 120.989 31.0012 92.3335 31.0012C59.4051 31.0012 32.7608 62.1701 32.7608 104.147ZM140.846 94.3444C140.846 131.043 114.202 152.912 87.3062 150.649C76.749 140.846 69.7109 125.513 69.7109 105.656C69.7109 68.9568 96.3552 47.0884 123 49.602C133.808 59.1538 140.846 74.4868 140.846 94.3444Z" fill="white"/>
<path fill-rule="evenodd" clip-rule="evenodd" d="M120.486 0C168.204 0 210.557 36.8896 210.557 97.3607C210.557 161.055 166.237 200 117.721 200H90.0712C42.353 200 0 163.11 0 102.639C0 42.0779 41.1938 0 92.5848 0H120.486ZM139.567 14.0445C164.062 30.1092 180.394 59.1978 180.394 95.8525C180.394 138.787 153.021 171.596 117.972 171.596C88.0178 171.596 60.3268 147.692 60.3268 105.907C60.3268 72.3814 79.0166 48.9179 104.415 42.1472C100.61 41.0138 96.6678 40.3854 92.5848 40.3854C65.5688 40.3854 42.145 66.3692 42.145 104.147C42.145 130.694 51.0432 151.635 65.0023 165.927C78.9702 180.228 98.1447 188.018 118.978 188.018C159.433 188.018 198.576 155.589 198.576 97.3607C198.576 52.1625 172.153 22.4448 139.567 14.0445ZM131.817 12.4673C158.988 26.9497 177.796 56.9128 177.796 95.8525C177.796 137.83 151.152 168.999 117.972 168.999C89.5685 168.999 62.9242 146.376 62.9242 105.907C62.9242 71.7411 82.8563 48.7729 108.98 43.7672C110.532 43.4698 112.106 43.2358 113.699 43.0666C112.241 42.3376 110.758 41.6711 109.25 41.0755C103.998 39.0017 98.4433 37.788 92.5848 37.788C63.6783 37.788 39.5475 65.4378 39.5475 104.147C39.5475 158.442 75.995 190.616 118.978 190.616C160.955 190.616 201.173 156.933 201.173 97.3607C201.173 47.5626 169.783 15.7643 132.644 9.96608C130.041 9.55967 127.41 9.28099 124.759 9.13281C127.167 10.1312 129.522 11.244 131.817 12.4673ZM71.3282 186.213C47.3234 170.479 30.1634 142.007 30.1634 104.147C30.1634 61.2206 57.5294 28.4038 92.3335 28.4038C122.532 28.4038 150.23 52.3006 150.23 94.093C150.23 127.622 131.33 151.304 105.866 157.924C109.75 159.05 113.815 159.615 117.972 159.615C144.988 159.615 168.412 133.631 168.412 95.8525C168.412 42.9187 133.055 11.9816 92.3335 11.9816C46.536 11.9816 11.9816 50.242 11.9816 102.639C11.9816 148.059 38.7912 177.816 71.3282 186.213ZM79.0642 187.789C52.5765 173.604 32.7608 144.416 32.7608 104.147C32.7608 62.1701 59.4051 31.0012 92.3335 31.0012C120.989 31.0012 147.633 53.6238 147.633 94.093C147.633 128.292 127.437 151.497 101.251 156.285C99.7225 156.564 98.1734 156.781 96.6066 156.933C98.0234 157.696 99.4756 158.376 100.958 158.974C106.314 161.133 112.066 162.212 117.972 162.212C146.879 162.212 171.01 134.562 171.01 95.8525C171.01 41.5584 134.562 9.38417 92.3335 9.38417C44.8261 9.38417 9.38416 49.0993 9.38416 102.639C9.38416 152.686 41.2303 184.503 78.234 190.29C80.817 190.694 83.4252 190.971 86.0494 191.119C83.6771 190.122 81.3459 189.011 79.0642 187.789ZM88.42 148.127C113.357 149.696 138.249 129.256 138.249 94.3444C138.249 75.5109 131.726 61.1415 121.91 52.1169C97.2357 50.2987 72.3083 70.7077 72.3083 105.656C72.3083 124.459 78.8129 138.848 88.42 148.127ZM87.3062 150.649C76.749 140.846 69.7109 125.513 69.7109 105.656C69.7109 68.9568 96.3552 47.0884 123 49.602C133.808 59.1538 140.846 74.4868 140.846 94.3444C140.846 131.043 114.202 152.912 87.3062 150.649ZM120.486 2.5974C166.736 2.5974 207.96 38.2908 207.96 97.3607C207.96 159.698 164.726 197.403 117.721 197.403H90.0712C43.8207 197.403 2.5974 161.709 2.5974 102.639C2.5974 43.318 42.8153 2.5974 92.5848 2.5974H120.486Z" fill="white"/>
<path d="M275.152 65.9459V95.473H306.908C309.701 95.473 311.683 95.7883 312.854 96.4189C314.836 97.545 315.827 99.3919 315.827 101.959C315.827 104.527 314.836 106.374 312.854 107.5C311.683 108.131 309.701 108.446 306.908 108.446H275.152V139.797C275.152 141.689 275.084 143.041 274.949 143.851C274.859 144.662 274.566 145.518 274.071 146.419C272.854 148.626 270.782 149.73 267.854 149.73C264.926 149.73 262.854 148.626 261.638 146.419C261.143 145.518 260.827 144.662 260.692 143.851C260.602 143.041 260.557 141.689 260.557 139.797V61.8919C260.557 58.7387 261.255 56.464 262.652 55.0676C264.048 53.6712 266.323 52.973 269.476 52.973H313.8C316.593 52.973 318.575 53.2883 319.746 53.9189C321.728 55.045 322.719 56.8919 322.719 59.4595C322.719 62.027 321.728 63.8739 319.746 65C318.575 65.6306 316.593 65.9459 313.8 65.9459H275.152Z" fill="white"/>
<path d="M332.177 130.203V61.6892C332.177 58.9414 332.514 56.8919 333.19 55.5405C334.316 53.3784 336.276 52.2973 339.069 52.2973C341.861 52.2973 343.821 53.3784 344.947 55.5405C345.623 56.8919 345.96 58.9414 345.96 61.6892V129.595C345.96 134.73 348.28 137.365 352.92 137.5C355.262 137.59 356.929 137.905 357.92 138.446C359.767 139.437 360.69 141.059 360.69 143.311C360.69 145.518 359.767 147.117 357.92 148.108C356.614 148.829 354.677 149.189 352.109 149.189H350.758C346.614 149.189 343.1 148.288 340.217 146.486C337.379 144.685 335.33 142.41 334.069 139.662C332.807 136.869 332.177 133.716 332.177 130.203Z" fill="white"/>
<path d="M409.628 122.432V89.527C409.628 86.7793 409.966 84.7297 410.642 83.3784C411.768 81.2162 413.727 80.1351 416.52 80.1351C419.313 80.1351 421.272 81.2162 422.398 83.3784C423.074 84.7297 423.412 86.7793 423.412 89.527V140.27C423.412 143.288 423.006 145.473 422.196 146.824C420.979 148.761 419.088 149.73 416.52 149.73C414.042 149.73 412.173 148.829 410.912 147.027C410.191 145.991 409.786 144.482 409.696 142.5C404.966 147.5 398.952 150 391.655 150C384.673 150 379.042 147.928 374.763 143.784C370.169 139.324 367.871 132.883 367.871 124.459V89.527C367.871 86.7793 368.209 84.7297 368.885 83.3784C370.011 81.2162 371.97 80.1351 374.763 80.1351C377.556 80.1351 379.515 81.2162 380.642 83.3784C381.317 84.7297 381.655 86.7793 381.655 89.527V122.432C381.655 127.523 382.916 131.329 385.439 133.851C388.006 136.329 391.34 137.568 395.439 137.568C399.583 137.568 402.984 136.306 405.642 133.784C408.299 131.216 409.628 127.432 409.628 122.432Z" fill="white"/>
<path d="M453.731 140.338C453.731 143.086 453.393 145.135 452.717 146.486C451.591 148.649 449.632 149.73 446.839 149.73C444.046 149.73 442.087 148.649 440.96 146.486C440.285 145.135 439.947 143.086 439.947 140.338V89.527C439.947 86.7793 440.285 84.7297 440.96 83.3784C442.087 81.2162 444.046 80.1351 446.839 80.1351C449.632 80.1351 451.591 81.2162 452.717 83.3784C453.393 84.7297 453.731 86.7793 453.731 89.527V140.338ZM440.96 64.1892C439.339 62.5676 438.528 60.6081 438.528 58.3108C438.528 56.0135 439.339 54.0541 440.96 52.4324C442.582 50.8108 444.541 50 446.839 50C449.136 50 451.096 50.8108 452.717 52.4324C454.339 54.0541 455.15 56.0135 455.15 58.3108C455.15 60.6081 454.339 62.5676 452.717 64.1892C451.096 65.8108 449.136 66.6216 446.839 66.6216C444.541 66.6216 442.582 65.8108 440.96 64.1892Z" fill="white"/>
<path d="M522.943 61.8243V140.27C522.943 143.288 522.538 145.473 521.727 146.824C520.511 148.761 518.619 149.73 516.051 149.73C513.574 149.73 511.704 148.829 510.443 147.027C509.722 146.081 509.317 144.459 509.227 142.162C506.794 145.045 504.137 147.072 501.254 148.243C498.416 149.414 495.105 150 491.321 150C484.204 150 478.619 147.973 474.565 143.919C471.547 140.856 469.52 136.937 468.484 132.162C467.493 127.387 466.997 121.622 466.997 114.865C466.997 108.153 467.493 102.432 468.484 97.7027C469.52 92.9279 471.547 89.009 474.565 85.9459C478.619 81.8919 484.159 79.8649 491.186 79.8649C495.06 79.8649 498.416 80.4504 501.254 81.6216C504.137 82.7477 506.772 84.7297 509.159 87.5676V61.8243C509.159 59.0766 509.497 57.027 510.173 55.6757C511.299 53.5135 513.258 52.4324 516.051 52.4324C518.844 52.4324 520.803 53.5135 521.93 55.6757C522.605 57.027 522.943 59.0766 522.943 61.8243ZM481.051 107.905C480.871 109.887 480.781 112.23 480.781 114.932C480.781 117.635 480.871 120 481.051 122.027C481.231 124.009 481.614 126.036 482.2 128.108C482.785 130.18 483.574 131.869 484.565 133.176C485.601 134.437 486.975 135.495 488.686 136.351C490.443 137.162 492.538 137.568 494.97 137.568C497.403 137.568 499.497 137.162 501.254 136.351C503.011 135.495 504.385 134.437 505.376 133.176C506.412 131.869 507.222 130.18 507.808 128.108C508.394 126.036 508.776 124.009 508.957 122.027C509.137 120 509.227 117.635 509.227 114.932C509.227 112.23 509.137 109.887 508.957 107.905C508.776 105.878 508.394 103.829 507.808 101.757C507.222 99.6847 506.412 98.018 505.376 96.7568C504.385 95.4504 503.011 94.3919 501.254 93.5811C499.497 92.7252 497.403 92.2973 494.97 92.2973C492.538 92.2973 490.443 92.7252 488.686 93.5811C486.975 94.3919 485.601 95.4504 484.565 96.7568C483.574 98.018 482.785 99.6847 482.2 101.757C481.614 103.829 481.231 105.878 481.051 107.905Z" fill="white"/>
<path d="M586.015 117.432L570.61 75.3378L555.204 117.432H586.015ZM590.542 129.865H550.677L545.88 142.77C545.25 144.437 544.732 145.653 544.326 146.419C543.921 147.14 543.38 147.77 542.704 148.311C541.533 149.257 540.204 149.73 538.718 149.73C536.511 149.73 534.731 149.009 533.38 147.568C532.524 146.667 531.984 145.676 531.759 144.595C531.533 143.468 531.511 142.455 531.691 141.554C531.916 140.608 532.322 139.392 532.907 137.905L562.367 59.4595C563.222 57.1622 564.191 55.4955 565.272 54.4595C566.713 53.1081 568.493 52.4324 570.61 52.4324C572.727 52.4324 574.506 53.1081 575.948 54.4595C577.029 55.4955 577.997 57.1622 578.853 59.4595L608.313 137.905C608.898 139.392 609.281 140.608 609.461 141.554C609.686 142.455 609.686 143.468 609.461 144.595C609.236 145.676 608.695 146.667 607.84 147.568C606.488 149.009 604.709 149.73 602.502 149.73C601.015 149.73 599.686 149.257 598.515 148.311C597.84 147.77 597.299 147.14 596.894 146.419C596.488 145.653 595.97 144.437 595.34 142.77L590.542 129.865Z" fill="white"/>
<path d="M634.4 139.797C634.4 141.689 634.332 143.041 634.197 143.851C634.107 144.662 633.814 145.518 633.319 146.419C632.103 148.626 630.031 149.73 627.103 149.73C624.175 149.73 622.103 148.626 620.886 146.419C620.391 145.518 620.076 144.662 619.941 143.851C619.85 143.041 619.805 141.689 619.805 139.797V62.3649C619.805 60.473 619.85 59.1216 619.941 58.3108C620.076 57.5 620.391 56.6441 620.886 55.7432C622.103 53.536 624.175 52.4324 627.103 52.4324C630.031 52.4324 632.103 53.536 633.319 55.7432C633.814 56.6441 634.107 57.5 634.197 58.3108C634.332 59.1216 634.4 60.473 634.4 62.3649V139.797Z" fill="white"/>
</svg>
