<svg width="85" height="75" viewBox="0 0 85 75" fill="none" xmlns="http://www.w3.org/2000/svg">
<path d="M32.011 -6.78421C32.8862 -7.15729 33.7481 -7.56644 34.6392 -7.89827C38.3865 -9.2911 42.2739 -10.0392 46.2546 -10.2544C50.8109 -10.5007 55.2862 -9.95075 59.6575 -8.62363C64.4786 -7.15993 68.8694 -4.85921 72.8268 -1.73119C76.2563 0.97973 79.157 4.1797 81.5442 7.84712C81.7053 8.09468 81.9587 8.3172 81.7453 8.69522C81.6582 8.85 81.7436 9.10358 81.7512 9.35516C81.9779 9.30843 82.1652 9.27003 82.4179 9.2178C82.9736 10.2603 83.535 11.3112 84.1258 12.42C83.5733 12.4978 83.1092 12.5872 82.6425 12.6122C82.5217 12.619 82.3452 12.4523 82.2706 12.3212C81.5275 11.0136 80.8614 9.65718 80.05 8.39527C79.3542 7.31328 78.5242 6.31311 77.7073 5.31479C73.8498 0.598521 69.1292 -2.98842 63.5714 -5.4571C59.2066 -7.39501 54.6347 -8.45606 49.8637 -8.66265C47.2448 -8.77612 44.6528 -8.5667 42.0602 -8.20448C40.3366 -7.96368 38.6682 -7.51318 37.0253 -6.99224C35.3799 -6.47 33.751 -5.85662 32.1874 -5.12566C30.6118 -4.38837 29.0951 -3.50759 27.607 -2.60031C25.6052 -1.37824 23.8051 0.118056 22.0878 1.71837C20.947 2.78129 19.9013 3.93076 18.9249 5.1399C18.5966 5.54704 18.3011 5.75429 17.7996 5.53152C17.7209 5.49633 17.6245 5.49971 17.5133 5.48206C17.2671 5.87671 17.5105 6.25058 17.5315 6.62427C17.5373 6.73082 17.5513 6.86395 17.4977 6.94184C17.0129 7.65975 16.5139 8.36764 15.9914 9.11954C15.654 8.84406 15.3559 9.03225 15.2099 9.31933C15.1404 9.45498 15.3492 9.73376 15.4633 10.0277C14.1904 12.1994 13.0253 14.5614 12.2292 17.0824C11.7218 18.6901 11.3284 20.3354 10.8951 21.9659C10.8246 22.2322 10.6558 22.3504 10.4712 22.5328C10.0608 22.9394 9.57108 22.7678 9.06157 23.0005C9.21408 22.2211 9.33571 21.5108 9.4944 20.8083C10.6963 15.4954 12.8818 10.6271 16.0578 6.20799C18.3473 3.02141 21.0516 0.241012 24.1555 -2.14866C24.3211 -2.27654 24.5037 -2.40126 24.6989 -2.46855C25.0824 -2.60028 25.5244 -2.63103 25.5778 -3.17716C25.5825 -3.22872 25.6888 -3.2733 25.751 -3.31629C27.6577 -4.62401 29.6614 -5.76028 31.7619 -6.726C31.8433 -6.76338 31.9362 -6.77831 32.023 -6.80349C32.0064 -6.76413 31.985 -6.72595 31.9742 -6.68464C31.9359 -6.54412 31.9012 -6.4032 31.8648 -6.26203C32.0045 -6.24561 32.1732 -6.17312 32.2774 -6.22573C32.428 -6.30246 32.5315 -6.47158 32.6554 -6.60099C32.5579 -6.68444 32.471 -6.80454 32.3591 -6.83969C32.257 -6.87067 32.1267 -6.80698 32.0088 -6.78667L32.011 -6.78421ZM27.5732 -3.012C27.8828 -3.35543 28.1975 -3.69496 28.4873 -4.05411C28.5047 -4.07506 28.3358 -4.33262 28.2286 -4.35363C27.9271 -4.41298 27.1897 -3.88532 27.089 -3.58426C26.9723 -3.23373 27.1221 -3.04659 27.5732 -3.012ZM34.8987 -7.18611C35.4174 -6.91301 35.9021 -6.94793 36.1855 -7.32655C36.2888 -7.46418 36.3274 -7.73429 36.2634 -7.88816C36.2195 -7.99118 35.9356 -8.05579 35.7728 -8.03379C35.3087 -7.9703 35.0531 -7.64281 34.8987 -7.18611ZM10.1293 20.3848C10.6214 20.508 10.9589 20.3633 10.9697 19.987C10.9745 19.8373 10.8016 19.597 10.657 19.5461C10.4204 19.4628 10.1519 19.9022 10.1293 20.3848ZM44.2719 -8.90917C44.3931 -9.10391 44.5046 -9.22234 44.5316 -9.35848C44.5413 -9.40796 44.3194 -9.57662 44.2527 -9.55242C44.121 -9.5052 44.0241 -9.36107 43.9133 -9.25754C44.0104 -9.16295 44.1076 -9.06835 44.2719 -8.90917Z" fill="#06C270"/>
<path d="M41.2855 68.7437C41.4818 68.5457 41.6365 68.4194 41.7528 68.2624C41.835 68.1518 41.8628 68.0016 41.9152 67.8693C41.7535 67.8079 41.5683 67.6637 41.4353 67.7018C41.1837 67.7752 40.9239 67.9145 40.7355 68.0965C40.3482 68.4703 39.9599 68.5222 39.4337 68.3991C34.3583 67.2128 29.6865 65.1246 25.424 62.1219C22.9275 60.3634 20.6573 58.3444 18.6317 56.0522C18.5923 56.0077 18.5593 55.9568 18.5435 55.9359C18.9544 55.6116 19.3571 55.2948 19.7339 54.9965C20.8446 56.0655 21.9729 57.2393 23.1923 58.3077C28.6692 63.1051 35.0076 66.0904 42.1793 67.287C42.6429 67.3643 43.1133 67.4054 43.5757 67.4875C43.8527 67.5364 44.1815 67.4346 44.298 67.904C44.3579 68.1464 44.6937 68.0427 44.9139 67.871C45.0452 67.7683 45.235 67.6685 45.3913 67.6789C48.3593 67.882 51.3104 67.7609 54.2507 67.3071C54.4275 67.2794 54.6347 67.3697 54.8127 67.4418C55.1147 67.564 55.3593 67.5851 55.5127 67.2266C55.5454 67.1508 55.6413 67.0716 55.7223 67.0509C56.5763 66.8354 57.4336 66.6304 58.2903 66.4275C58.375 66.4072 58.4868 66.3887 58.5539 66.4265C58.8274 66.5823 58.9594 66.4517 59.164 66.2601C59.3588 66.0781 59.6745 66.0151 59.9453 65.9279C64.3012 64.5355 68.2672 62.4085 71.8493 59.5629C76.8383 55.5992 80.5967 50.6779 83.1723 44.8441C83.4731 44.1623 83.7376 43.4652 84.0332 42.7397C84.3855 42.8779 84.6737 42.7504 84.7298 42.3815C84.7542 42.2199 84.5477 42.0231 84.4348 41.8234C84.8464 40.1237 85.2751 38.3355 85.721 36.5523C85.7484 36.4448 85.9038 36.3174 86.0186 36.2939C86.449 36.2074 86.887 36.1615 87.4232 36.086C87.2575 36.9357 87.103 37.7274 86.9427 38.5496C86.6871 38.5088 86.4702 38.4745 86.2107 38.4324C86.1187 38.9136 86.1383 39.3292 86.4367 39.7212C86.5159 39.8257 86.5498 40.0209 86.5145 40.1508C85.5117 43.8336 83.9974 47.2951 81.9913 50.5362C79.3424 54.8154 76.0072 58.4685 71.9852 61.4844C68.6656 63.9729 65.063 65.9432 61.1124 67.2074C59.1349 67.8402 57.0943 68.2737 55.0816 68.793C54.9213 68.8341 54.7528 68.8421 54.5928 68.8646C54.3024 68.2345 54.2069 68.2369 53.6741 68.6978C53.4496 68.8923 53.1461 69.0748 52.861 69.1066C49.0683 69.5378 45.2845 69.4671 41.519 68.8043C41.4641 68.7944 41.4108 68.776 41.2835 68.7421L41.2855 68.7437ZM78.8792 53.3481C79.4094 53.4595 79.7132 53.3251 79.7198 52.9318C79.7225 52.7796 79.5452 52.5417 79.3976 52.4885C79.1724 52.4082 78.8901 52.8866 78.8792 53.3481ZM81.7113 48.3703C81.5502 48.7067 81.428 48.9007 81.3739 49.1128C81.3591 49.1722 81.6188 49.3671 81.6288 49.3592C81.8197 49.1888 82.0013 49.0041 82.1543 48.8003C82.166 48.7847 81.9459 48.5964 81.7115 48.3712L81.7113 48.3703ZM38.8947 67.0415C38.5409 67.0894 38.2357 67.1685 38.199 67.5642C38.1956 67.5989 38.4956 67.726 38.6308 67.6978C38.9584 67.6276 39.1425 67.4342 38.8947 67.0415V67.0415ZM64.5525 64.651L64.6217 64.8744C64.8373 64.8672 65.0539 64.8599 65.2696 64.8526L65.2372 64.1816C65.1875 64.1627 65.1371 64.1448 65.0874 64.1259C64.9091 64.3009 64.7307 64.475 64.5524 64.6501L64.5525 64.651Z" fill="#06C270"/>
<path d="M25.7788 46.394L25.5581 44.8212C25.7297 44.7887 25.8866 44.7509 26.0458 44.7285C41.9511 42.4884 57.8577 40.251 73.7615 38C74.2163 37.936 74.3307 38.0679 74.377 38.4899C74.4908 39.5307 74.5105 39.5335 73.4752 39.6793C60.2218 41.5451 46.9689 43.409 33.7153 45.2739C31.2632 45.6191 28.8113 45.9661 26.3593 46.3122C26.182 46.3372 26.0048 46.3621 25.7788 46.394V46.394ZM42.5062 43.9808C43.061 43.4002 43.0839 43.1822 42.663 42.6797C42.0532 43.0386 41.9864 43.5218 42.5062 43.9808ZM33.6212 44.9253C33.9026 44.7228 34.3058 44.6457 34.172 44.2046C34.1479 44.1247 33.7684 44.0485 33.6517 44.1242C33.3635 44.311 33.3321 44.5995 33.6212 44.9253ZM37.8574 43.8828C37.9084 43.8914 37.9593 43.899 38.0103 43.9076C38.0512 43.7723 38.1661 43.5858 38.1154 43.5134C38.0392 43.4038 37.8495 43.3731 37.7079 43.3098C37.6808 43.3469 37.6537 43.384 37.6277 43.4219C37.7046 43.5758 37.7805 43.7289 37.8574 43.8828Z" fill="#06C270"/>
<path d="M70.9674 14.2539L22.2565 21.1114L22.0421 19.5832C22.2002 19.5535 22.3707 19.5138 22.5434 19.4894C34.1154 17.8622 45.6885 16.2366 57.2603 14.6085C61.5787 14.0005 65.8982 13.3943 70.2139 12.7673C70.6567 12.7031 70.8176 12.8183 70.8334 13.2529C70.8446 13.5688 70.9154 13.8827 70.9674 14.2539ZM57.2453 15.4213C57.4217 15.2003 57.5368 15.0545 57.6529 14.9095C57.5376 14.8369 57.3883 14.6793 57.3123 14.7094C57.1402 14.7772 57.0031 14.9371 56.8524 15.0592C56.9573 15.1564 57.0623 15.2536 57.2445 15.4223L57.2453 15.4213Z" fill="#06C270"/>
<path d="M78.1252 46.1599L78.2187 46.826C78.3342 46.8347 78.4489 46.8436 78.586 46.8548C78.5692 46.9127 78.563 46.9737 78.5355 47.0211C77.3405 49.117 75.9372 51.0627 74.3376 52.864C72.7147 54.6907 70.9301 56.3431 68.9597 57.7893C68.6412 58.0229 68.3215 58.2549 67.9913 58.4707C67.7193 58.6478 67.4987 58.9223 67.0712 58.7409C66.9203 58.677 66.5545 58.8831 66.4159 59.0645C65.315 60.517 63.6199 60.9879 62.0929 61.7295C61.6665 61.9366 61.1779 62.01 60.7306 62.1795C60.0862 62.4238 59.4672 62.7432 58.8127 62.9548C56.3316 63.7575 53.7896 64.2773 51.1874 64.466C50.1221 64.5428 49.0524 64.6009 47.9844 64.5921C46.8775 64.5822 45.7673 64.5229 44.6669 64.4085C43.5817 64.2966 42.4983 64.1261 41.4283 63.9122C40.3583 63.6991 39.2911 63.4467 38.2463 63.1302C33.9237 61.8221 29.9897 59.7606 26.4591 56.9279C24.3261 55.2163 22.4058 53.2933 20.7375 51.122C20.5829 50.9207 20.4804 50.6436 20.4515 50.3913C20.4186 50.1045 20.301 49.9692 20.0522 49.8525C19.8351 49.7507 19.5977 49.6028 19.4718 49.4086C18.755 48.3018 18.0685 47.1749 17.3649 46.0441C18.0979 45.7345 18.1727 45.7619 18.5011 46.3348C22.5996 53.4853 28.472 58.5778 36.1379 61.5484C41.9238 63.7906 47.9049 64.3543 54.0065 63.2991C61.0613 62.0792 67.1532 58.9246 72.268 53.8855C72.5433 53.6135 72.891 53.41 73.1416 53.1193C73.7218 52.4444 74.2982 51.7618 74.8103 51.0354C75.8626 49.5453 76.872 48.0252 77.8977 46.5167C77.9557 46.4308 78.0086 46.341 78.1231 46.1583L78.1252 46.1599Z" fill="#06C270"/>
<path d="M55.1326 56.5783C54.1971 56.2325 53.3651 55.9479 52.5539 55.6142C52.1351 55.4418 51.8108 55.444 51.4389 55.7434C50.7429 56.3032 50.0044 56.8098 49.1902 57.4075C49.1972 57.0104 49.196 56.7061 49.2105 56.4023C49.2433 55.7027 49.2993 55.0044 49.3109 54.305C49.3136 54.1603 49.1968 53.9648 49.0753 53.8745C48.3287 53.3244 47.5653 52.7989 46.8078 52.2633C46.7505 52.2223 46.6999 52.1711 46.5824 52.0692C47.5395 51.8067 48.4211 51.5382 49.3168 51.3307C49.7267 51.236 49.9212 51.0383 50.0368 50.6398C50.2893 49.7649 50.5937 48.9049 50.9061 47.9503C51.3446 48.5984 51.7461 49.1795 52.1348 49.7679C52.8044 50.7814 52.8011 50.7782 54.0028 50.7469C54.7093 50.7289 55.4169 50.732 56.2309 50.7238C55.59 51.5119 55.0271 52.225 54.4392 52.9177C54.1845 53.2182 54.0711 53.4748 54.2442 53.8872C54.5313 54.5733 54.7322 55.2955 54.9662 56.0039C55.0176 56.1595 55.0583 56.3185 55.1334 56.5773L55.1326 56.5783ZM53.6947 52.9281C53.8727 52.7114 53.9939 52.563 54.1159 52.4144C53.982 52.3407 53.8233 52.1816 53.7217 52.2135C53.5625 52.2619 53.4426 52.4388 53.3058 52.5617C53.4131 52.6623 53.5194 52.763 53.6957 52.9289L53.6947 52.9281Z" fill="#06C270"/>
<path d="M44.3638 1.44564C44.943 2.2877 45.4877 3.06151 46.0122 3.84926C46.1779 4.09709 46.3402 4.22231 46.6685 4.20941C47.6334 4.17261 48.6003 4.19011 49.6839 4.18562C49.1011 4.91456 48.6235 5.59814 48.0553 6.19453C47.6261 6.64458 47.5644 7.03918 47.7984 7.60315C48.1117 8.3577 48.3302 9.15244 48.6247 10.0355C47.9242 9.78152 47.284 9.62826 46.7236 9.3268C45.8052 8.83418 45.0538 8.90665 44.2965 9.64719C43.8458 10.0882 43.2744 10.4056 42.7558 10.7775C42.7457 10.7845 42.7266 10.7798 42.6481 10.7853C42.6808 9.99959 42.6491 9.20908 42.7626 8.44072C42.8684 7.72249 42.6493 7.29153 42.0311 6.9399C41.4259 6.59569 40.8776 6.15093 40.3065 5.74732C40.2389 5.69946 40.1844 5.63309 40.0684 5.52264C40.8868 5.29637 41.6316 5.03882 42.3984 4.89199C43.0818 4.76155 43.4703 4.46809 43.6237 3.74778C43.788 2.97967 44.0986 2.24278 44.3619 1.44499L44.3638 1.44564ZM46.0019 6.29297C46.2734 6.16406 46.537 6.03902 46.7099 5.95639C46.858 6.13173 46.9712 6.36012 47.0603 6.35127C47.2358 6.33396 47.4371 6.21771 47.5562 6.08064C47.653 5.96891 47.6725 5.76627 47.6729 5.60427C47.6734 5.47648 47.6156 5.26159 47.5407 5.24066C47.4266 5.20952 47.2015 5.27453 47.1553 5.36526C47.0116 5.64923 46.811 5.61917 46.5557 5.60051C46.0907 5.5651 45.9312 5.77543 46.001 6.2931L46.0019 6.29297Z" fill="#06C270"/>
<path d="M79.0659 13.099C78.2975 13.2868 78.3018 13.2843 77.9481 12.6631C77.7303 12.2801 77.5062 11.8989 77.2705 11.5268C77.05 11.1774 76.7606 10.8499 77.227 10.3094C76.4049 10.4835 76.247 9.9162 75.9453 9.52741C75.2553 8.63802 74.5612 7.75198 73.9204 6.93063C73.9485 6.67772 73.9718 6.469 73.995 6.25936C73.7873 6.24509 73.5798 6.23173 73.2931 6.21195C72.4505 5.41807 71.5458 4.51634 70.5896 3.67461C67.5797 1.02399 64.1989 -1.03115 60.4475 -2.42797C58.8307 -3.02955 57.1437 -3.44081 55.485 -3.92728C55.2004 -4.01031 54.9048 -4.03348 54.9943 -4.46067C55.0076 -4.52363 54.8906 -4.61451 54.8336 -4.69255C54.7614 -4.62871 54.6663 -4.57737 54.624 -4.49739C54.5757 -4.40822 54.5752 -4.29339 54.5406 -4.12565C54.0176 -4.31115 53.3961 -4.10797 53.0593 -4.5566C52.7135 -4.53013 52.4353 -4.47615 52.1618 -4.49318C50.7742 -4.57824 49.3878 -4.68106 48.0068 -4.77816C48.0547 -4.99498 48.1092 -5.23771 48.1646 -5.48705C60.7035 -5.75583 73.2427 1.72598 79.0659 13.099V13.099Z" fill="#06C270"/>
<path d="M56.2124 0.962203C56.7421 1.74738 57.2103 2.41627 57.6489 3.10414C57.8072 3.35208 57.9823 3.4496 58.2735 3.44192C59.115 3.4197 59.9575 3.42509 60.8917 3.41944C60.44 3.98555 60.0635 4.53552 59.6068 5.00609C59.1316 5.49684 58.9768 5.95082 59.2942 6.60948C59.5749 7.19093 59.7149 7.84033 59.9518 8.56306C59.2226 8.30109 58.5545 8.11289 57.9338 7.82269C57.3566 7.5532 56.9155 7.59679 56.4306 8.02413C55.9219 8.47332 55.3377 8.83691 54.6993 9.30158C54.7151 8.78945 54.6615 8.34815 54.7536 7.94002C55.0213 6.75292 54.6581 5.93227 53.5335 5.4215C53.1435 5.24412 52.8181 4.92253 52.3759 4.60349C53.2329 4.36994 53.9957 4.14871 54.7659 3.95978C55.1349 3.86897 55.3615 3.71675 55.4669 3.31137C55.6615 2.56213 55.9318 1.83369 56.2133 0.962076L56.2124 0.962203ZM56.9685 6.53524C56.5641 6.72822 56.3247 7.11174 56.5032 7.30595C56.5827 7.39285 56.8487 7.43591 56.9283 7.37196C57.2316 7.12844 57.1525 6.8277 56.9685 6.53524V6.53524Z" fill="#06C270"/>
<path d="M43.9778 53.2733C43.3967 54.0011 42.9042 54.6572 42.3652 55.2717C42.1338 55.5347 42.1357 55.7584 42.2396 56.0519C42.5055 56.8104 42.7548 57.5749 43.0417 58.4303C42.3597 58.183 41.7292 58.02 41.1623 57.7315C40.4771 57.3828 39.9488 57.4553 39.384 57.9772C38.9114 58.4139 38.3432 58.7475 37.7622 59.1671C37.8046 58.3125 37.8333 57.5246 37.8909 56.7391C37.9005 56.6109 38.0712 56.4999 38.1022 56.366C38.1496 56.1585 38.1408 55.9376 38.1558 55.7227C37.9866 55.7326 37.8173 55.7481 37.648 55.7507C37.5164 55.7525 37.3531 55.7848 37.2577 55.7223C36.6766 55.3396 36.1114 54.9323 35.4511 54.4719C36.1235 54.2828 36.7012 54.0562 37.3002 53.9682C38.1214 53.8479 38.5685 53.4528 38.7242 52.6238C38.8298 52.062 39.0708 51.5256 39.2512 50.9782C39.255 50.9657 39.2713 50.9569 39.3439 50.8828C39.6935 51.5804 40.3459 52.0513 40.4721 52.8914C40.4977 53.0608 40.9776 53.2607 41.2571 53.2751C42.1327 53.3184 43.0125 53.2806 43.9787 53.2732L43.9778 53.2733Z" fill="#06C270"/>
<path d="M58.9005 51.1531C59.837 50.8945 60.6577 50.6855 61.4649 50.4321C61.6443 50.3763 61.8362 50.1929 61.915 50.0189C62.0778 49.661 62.1352 49.255 62.297 48.8972C62.4582 48.5413 62.6953 48.2201 62.9432 47.8114C63.4077 48.4937 63.7996 49.1049 64.234 49.6841C64.3453 49.8332 64.5864 49.9612 64.7715 49.9666C65.6185 49.9899 66.4672 49.9667 67.4305 49.9588C66.8097 50.7319 66.2568 51.4243 65.6946 52.1096C65.6552 52.1577 65.5426 52.1698 65.4693 52.1598C64.9158 52.0859 64.7264 52.3264 64.9229 52.8919C65.1536 52.7882 65.3823 52.6838 65.6416 52.5668C65.9224 53.4111 66.1912 54.2163 66.4893 55.1128C65.8201 54.871 65.1891 54.7109 64.624 54.4221C63.9377 54.0718 63.4028 54.1498 62.8366 54.6617C62.3677 55.0859 61.817 55.4189 61.3033 55.7929C61.2569 55.7772 61.2095 55.7617 61.1631 55.746C61.255 55.212 61.3509 54.6793 61.4352 54.1437C61.4512 54.0405 61.4319 53.9294 61.4126 53.8248C61.3922 53.712 61.3082 53.5933 61.3293 53.4941C61.432 53.0169 61.227 52.745 60.8291 52.4984C60.1991 52.1086 59.6104 51.652 58.9013 51.1521L58.9005 51.1531Z" fill="#06C270"/>
<path d="M18.2021 13.1848C18.1296 12.9636 18.0663 12.7689 18.002 12.5735C17.8989 12.7453 17.809 12.9264 17.6884 13.085C17.5918 13.2115 17.4579 13.309 17.2506 13.3558C17.4598 12.9672 17.662 12.5751 17.8793 12.1919C19.5903 9.17928 21.7001 6.47979 24.2006 4.08716C24.3973 3.89845 24.5703 3.78432 24.8673 3.85079C25.2176 3.92918 25.5715 3.90157 25.7924 3.45865C25.6486 3.36043 25.4957 3.2561 25.2744 3.10494C31.6724 -2.40913 39.0788 -5.23052 47.4968 -5.47535C47.157 -5.08417 46.8998 -4.66389 46.2499 -4.62978C40.9092 -4.35545 35.9214 -2.84721 31.2815 -0.194098C27.9013 1.73841 24.9483 4.19845 22.4 7.15032C22.2564 7.31675 22.0284 7.41362 21.8305 7.52755C21.5745 7.67464 21.3192 7.80035 21.4366 8.18362C21.4619 8.2652 21.3807 8.39602 21.3202 8.48412C20.5746 9.57747 19.8789 10.711 19.0502 11.7374C18.6818 12.1937 18.6381 12.7958 18.2042 13.1863L18.2021 13.1848Z" fill="#06C270"/>
<path d="M32.7706 4.28176C33.2878 5.05018 33.7531 5.69173 34.1598 6.36928C34.3583 6.69948 34.5973 6.76671 34.9423 6.75515C35.7409 6.72971 36.54 6.73383 37.4507 6.72501C36.8424 7.48252 36.296 8.16191 35.7512 8.84014C35.1029 8.40575 34.8871 8.42503 34.3404 9.01007C34.0629 9.30641 33.8216 9.63653 33.5595 9.95753C34.3535 10.3066 34.9296 10.1543 35.6564 9.38007C35.7788 9.72655 35.8902 10.0412 35.9847 10.3074C35.8741 10.4785 35.7923 10.6047 35.7104 10.731C35.8239 10.778 35.9418 10.816 36.0487 10.875C36.1177 10.9134 36.1986 10.9705 36.2246 11.0381C36.3164 11.2778 36.387 11.5251 36.5012 11.8792C35.806 11.6291 35.1617 11.4663 34.5848 11.1727C33.9204 10.834 33.4155 10.9421 32.8762 11.416C32.3895 11.8436 31.8325 12.1913 31.2376 12.6239C31.2772 11.6901 31.3274 10.8326 31.3362 9.97531C31.3379 9.80294 31.2259 9.56976 31.0896 9.46587C30.4855 9.00489 29.8527 8.58221 29.2314 8.14309C29.1506 8.08599 29.0773 8.01763 28.9501 7.91246C29.7857 7.68378 30.5519 7.45375 31.3291 7.26937C31.695 7.1827 31.8934 7.01965 32.0001 6.64369C32.2184 5.87261 32.4943 5.1184 32.77 4.2837L32.7706 4.28176Z" fill="#06C270"/>
<path d="M19.0368 54.0961C18.6385 54.4511 18.2582 54.7897 17.8507 55.1515C15.7056 52.592 13.8882 49.7855 12.3974 46.6518C12.9354 46.576 13.4194 46.4968 13.9061 46.4496C13.9889 46.4416 14.1249 46.5502 14.1686 46.6384C15.4917 49.3257 17.1575 51.7879 19.0386 54.1088C19.0475 54.1196 19.0481 54.1371 19.0349 54.0954L19.0368 54.0961Z" fill="#06C270"/>
<path d="M82.508 36.7909C82.0894 38.2241 81.7124 39.5525 81.3103 40.8723C81.1416 41.4245 80.9325 41.9648 80.7104 42.4986C80.6284 42.6961 80.453 42.8522 80.331 43.0341C80.2585 43.1415 80.1472 43.2682 80.156 43.3771C80.208 44.0102 79.9509 44.4388 79.4406 44.8105C79.0173 45.119 78.682 45.5484 78.2157 46.0167C78.6189 45.177 78.9775 44.4537 79.3164 43.7211C80.2644 41.672 80.9977 39.5448 81.4746 37.338C81.6017 36.7519 81.9933 36.8754 82.5089 36.7908L82.508 36.7909Z" fill="#06C270"/>
<path d="M16.962 13.9147C17.273 14.5668 17.4991 14.0232 17.8494 13.911C17.6667 14.2911 17.511 14.6138 17.3575 14.9325C17.1854 14.9281 17.0272 14.9244 16.7412 14.9166C17.2648 15.5008 16.8867 15.9539 16.7028 16.4305C16.4944 16.9697 16.3702 17.5628 16.0623 18.0365C15.7196 18.5641 15.7411 19.158 15.5488 19.7061C15.3488 20.2784 15.2188 20.877 15.073 21.4676C14.8916 22.2048 14.8991 22.2056 14.0687 22.2475C14.672 19.352 15.6349 16.6067 16.961 13.9139L16.962 13.9147Z" fill="#06C270"/>
<path d="M10.8975 39.5618L8.09131 39.9568L10.2204 28.6404L13.6964 28.1511L18.857 38.4412L16.0508 38.8363L12.3799 31.1121L12.2955 31.124L10.8975 39.5618ZM9.92643 35.3628L15.7919 34.5371L16.0702 36.5205L10.2047 37.3462L9.92643 35.3628ZM20.02 38.2775L18.5043 27.4742L22.9667 26.846C23.7755 26.7321 24.4957 26.7921 25.1274 27.026C25.762 27.2558 26.2788 27.6295 26.6778 28.1471C27.0762 28.6612 27.3275 29.2893 27.4316 30.0313C27.5362 30.7768 27.4642 31.4522 27.2156 32.0574C26.9701 32.6586 26.5681 33.1545 26.0097 33.5451C25.4513 33.9357 24.759 34.1892 23.9326 34.3055L21.1792 34.6931L20.8906 32.6359L23.1587 32.3166C23.5525 32.2611 23.8717 32.1462 24.1162 31.972C24.3642 31.7972 24.5395 31.5771 24.6421 31.3116C24.7442 31.0426 24.7721 30.7428 24.7257 30.4122C24.6788 30.0782 24.5698 29.7994 24.3986 29.5761C24.2269 29.3492 23.9981 29.1878 23.7121 29.0918C23.4261 28.9958 23.0879 28.9753 22.6976 29.0302L21.4106 29.2114L22.631 37.9099L20.02 38.2775ZM29.7096 36.9134L28.1939 26.1101L32.6563 25.4819C33.4651 25.368 34.1853 25.428 34.817 25.6619C35.4516 25.8917 35.9685 26.2654 36.3674 26.783C36.7658 27.2971 37.0171 27.9252 37.1212 28.6672C37.2258 29.4127 37.1538 30.0881 36.9053 30.6933C36.6597 31.2945 36.2577 31.7904 35.6993 32.181C35.1409 32.5716 34.4486 32.8251 33.6222 32.9414L30.8688 33.329L30.5802 31.2718L32.8483 30.9525C33.2421 30.897 33.5613 30.7821 33.8058 30.6079C34.0538 30.4331 34.2291 30.213 34.3317 29.9475C34.4338 29.6785 34.4617 29.3787 34.4153 29.0481C34.3684 28.7141 34.2594 28.4353 34.0882 28.212C33.9165 27.9851 33.6877 27.8237 33.4017 27.7277C33.1157 27.6317 32.7775 27.6112 32.3872 27.6661L31.1002 27.8473L32.3206 36.5458L29.7096 36.9134ZM39.3992 35.5493L37.8835 24.746L42.3459 24.1178C43.1547 24.0039 43.8732 24.0516 44.5014 24.2608C45.1326 24.466 45.6462 24.8169 46.0422 25.3134C46.4377 25.8064 46.6872 26.4222 46.7909 27.1607C46.8959 27.9097 46.8217 28.5693 46.5682 29.1393C46.3142 29.7058 45.9058 30.1685 45.343 30.5275C44.7796 30.8829 44.0866 31.1186 43.2637 31.2344L40.4417 31.6317L40.1531 29.5744L42.4898 29.2455C42.8836 29.19 43.2053 29.0927 43.4547 28.9536C43.7071 28.8105 43.8871 28.6238 43.9947 28.3935C44.1017 28.1597 44.1318 27.8757 44.0849 27.5416C44.0381 27.2075 43.9308 26.9411 43.763 26.7424C43.5948 26.5402 43.3694 26.4033 43.0869 26.3319C42.8038 26.257 42.4671 26.2471 42.0768 26.302L40.7898 26.4832L42.0102 35.1817L39.3992 35.5493ZM44.7882 29.7557L48.1711 34.3144L45.3227 34.7154L41.9926 30.1492L44.7882 29.7557ZM58.672 27.3278C58.8388 28.5164 58.7516 29.5561 58.4104 30.4469C58.0692 31.3377 57.5384 32.0525 56.8179 32.5915C56.101 33.1299 55.259 33.4672 54.292 33.6033C53.3214 33.74 52.4172 33.6467 51.5794 33.3236C50.7416 33.0004 50.0364 32.4596 49.4638 31.701C48.8942 30.9384 48.5263 29.9646 48.36 28.7795C48.1932 27.5908 48.2787 26.5514 48.6164 25.6611C48.9576 24.7703 49.4866 24.0557 50.2036 23.5173C50.9205 22.9788 51.7642 22.6413 52.7348 22.5046C53.7018 22.3685 54.604 22.4603 55.4413 22.7799C56.2822 23.099 56.9891 23.6396 57.5622 24.4017C58.1353 25.1638 58.5053 26.1391 58.672 27.3278ZM56.003 27.7035C55.9044 27.0002 55.7207 26.4199 55.4522 25.9629C55.1872 25.5053 54.8508 25.1779 54.443 24.9807C54.0388 24.783 53.5764 24.7207 53.056 24.794C52.5391 24.8668 52.1118 25.0542 51.774 25.3564C51.4363 25.6586 51.2013 26.0664 51.069 26.5799C50.9401 27.093 50.925 27.7011 51.0237 28.4045C51.1224 29.1078 51.3042 29.6883 51.5693 30.1459C51.8378 30.6029 52.1759 30.9301 52.5837 31.1273C52.9915 31.3245 53.4538 31.3867 53.9708 31.314C54.4912 31.2407 54.9185 31.0532 55.2527 30.7516C55.5904 30.4494 55.8237 30.0418 55.9525 29.5288C56.0849 29.0153 56.1017 28.4068 56.003 27.7035ZM61.253 21.4561L64.779 29.0285L64.8687 29.0159L66.1743 20.7632L69.0965 20.3519L66.9674 31.6683L63.4914 32.1576L58.3309 21.8674L61.253 21.4561ZM71.7753 30.9914L70.2596 20.1881L77.7918 19.1277L78.0894 21.2483L73.1681 21.9411L73.4789 24.1566L78.0152 23.518L78.3134 25.6439L73.7772 26.2825L74.0888 28.5033L79.01 27.8105L79.3076 29.931L71.7753 30.9914ZM84.9357 29.1387L80.9427 29.7008L79.427 18.8975L83.4147 18.3362C84.5153 18.1812 85.4933 18.2641 86.3488 18.5847C87.2072 18.9014 87.9094 19.4337 88.4554 20.1817C89.0009 20.9261 89.3524 21.8592 89.5098 22.981C89.6677 24.1064 89.5871 25.1039 89.268 25.9736C88.9525 26.8429 88.426 27.55 87.6884 28.0949C86.9504 28.6363 86.0328 28.9842 84.9357 29.1387ZM83.2414 27.1072L84.5231 26.9267C85.128 26.8416 85.6253 26.6676 86.0151 26.4047C86.408 26.1378 86.6791 25.7572 86.8285 25.2628C86.9809 24.7643 87.0026 24.1265 86.8935 23.3494C86.7845 22.5722 86.5886 21.9686 86.306 21.5386C86.0228 21.1051 85.6542 20.8163 85.2001 20.6722C84.749 20.5241 84.214 20.4937 83.5951 20.5808L82.3503 20.756L83.2414 27.1072Z" fill="#06C270"/>
</svg>
