<svg width="849" height="248" viewBox="0 0 849 248" fill="none" xmlns="http://www.w3.org/2000/svg">
<path d="M402 60C402 67.732 408.268 74 416 74H433C440.732 74 447 67.732 447 60V14C447 6.26801 453.268 0 461 0H542C549.732 0 556 6.26801 556 14V90C556 97.732 549.732 104 542 104H493C485.268 104 479 110.268 479 118V130C479 137.732 485.268 144 493 144H542C549.732 144 556 150.268 556 158V234C556 241.732 549.732 248 542 248H461C453.268 248 447 241.732 447 234V192C447 184.268 440.732 178 433 178H416C408.268 178 402 184.268 402 192V234C402 241.732 395.732 248 388 248H307C299.268 248 293 241.732 293 234V158C293 150.268 299.268 144 307 144H356C363.732 144 370 137.732 370 130V118C370 110.268 363.732 104 356 104H307C299.268 104 293 97.732 293 90V14C293 6.26801 299.268 0 307 0H388C395.732 0 402 6.26801 402 14V60Z" fill="white"/>
<path d="M263 90C263 97.732 256.732 104 249 104H69C61.268 104 55 110.268 55 118V130C55 137.732 61.268 144 69 144H249C256.732 144 263 150.268 263 158V234C263 241.732 256.732 248 249 248H14C6.26802 248 0 241.732 0 234V14C0 6.26802 6.26801 0 14 0H249C256.732 0 263 6.26801 263 14V90Z" fill="white"/>
<path d="M849 90C849 97.732 842.732 104 835 104H655C647.268 104 641 110.268 641 118V130C641 137.732 647.268 144 655 144H835C842.732 144 849 150.268 849 158V234C849 241.732 842.732 248 835 248H600C592.268 248 586 241.732 586 234V14C586 6.26802 592.268 0 600 0H835C842.732 0 849 6.26801 849 14V90Z" fill="white"/>
</svg>
