<svg width="50" height="50" viewBox="0 0 50 50" fill="none" xmlns="http://www.w3.org/2000/svg">
<path d="M1.44 11.44V2.2H4.68V11.22C4.68 12.1533 4.92667 12.8667 5.42 13.36C5.91333 13.8533 6.61333 14.1 7.52 14.1C8.44 14.1 9.14667 13.8467 9.64 13.34C10.1467 12.8333 10.4 12.1267 10.4 11.22V2.2H13.64V11.44C13.64 12.6133 13.3867 13.6333 12.88 14.5C12.3867 15.3667 11.68 16.04 10.76 16.52C9.84 17 8.76 17.24 7.52 17.24C6.29333 17.24 5.22 17.0067 4.3 16.54C3.39333 16.06 2.68667 15.3867 2.18 14.52C1.68667 13.64 1.44 12.6133 1.44 11.44ZM20.2181 17L15.7781 2.2H19.1581L21.0981 8.62C21.2315 9.06 21.3581 9.52667 21.4781 10.02C21.5981 10.5 21.7181 11.1067 21.8381 11.84C21.9581 11.1067 22.0781 10.5 22.1981 10.02C22.3181 9.54 22.4448 9.07333 22.5781 8.62L24.3981 2.2H28.0181L29.7581 8.62C29.8781 9.07333 29.9981 9.54667 30.1181 10.04C30.2381 10.5333 30.3648 11.1333 30.4981 11.84C30.6448 11.0933 30.7781 10.4867 30.8981 10.02C31.0181 9.54 31.1448 9.08667 31.2781 8.66L33.2581 2.2H36.5581L32.0381 17H28.8781L26.1781 7.28L23.3981 17H20.2181ZM7.34 35H1.54V20.2H7.14C8.59333 20.2 9.86667 20.5133 10.96 21.14C12.0667 21.7667 12.9333 22.64 13.56 23.76C14.1867 24.88 14.5 26.1733 14.5 27.64C14.5 29.08 14.1933 30.3533 13.58 31.46C12.98 32.5667 12.14 33.4333 11.06 34.06C9.99333 34.6867 8.75333 35 7.34 35ZM4.78 21.68V33.56L3.24 32H7.02C7.87333 32 8.6 31.8267 9.2 31.48C9.81333 31.1333 10.28 30.6333 10.6 29.98C10.92 29.3267 11.08 28.5467 11.08 27.64C11.08 26.7067 10.9067 25.9133 10.56 25.26C10.2267 24.5933 9.74 24.0867 9.1 23.74C8.47333 23.38 7.71333 23.2 6.82 23.2H3.24L4.78 21.68ZM16.3348 24.5C16.3348 23.6067 16.5682 22.82 17.0348 22.14C17.5015 21.4467 18.1415 20.9067 18.9548 20.52C19.7815 20.12 20.7215 19.92 21.7748 19.92C22.8415 19.92 23.7615 20.1067 24.5348 20.48C25.3082 20.8533 25.9015 21.38 26.3148 22.06C26.7415 22.74 26.9548 23.5467 26.9548 24.48H23.7348C23.7348 23.96 23.5548 23.5533 23.1948 23.26C22.8348 22.9533 22.3482 22.8 21.7348 22.8C21.0815 22.8 20.5548 22.94 20.1548 23.22C19.7682 23.5 19.5748 23.8867 19.5748 24.38C19.5748 24.8333 19.6948 25.18 19.9348 25.42C20.1748 25.66 20.5548 25.8333 21.0748 25.94L23.2948 26.4C24.6148 26.6667 25.5948 27.1333 26.2348 27.8C26.8748 28.4533 27.1948 29.3667 27.1948 30.54C27.1948 31.4867 26.9615 32.32 26.4948 33.04C26.0282 33.7467 25.3682 34.2933 24.5148 34.68C23.6748 35.0667 22.6882 35.26 21.5548 35.26C20.4615 35.26 19.5015 35.0733 18.6748 34.7C17.8615 34.3267 17.2282 33.8 16.7748 33.12C16.3348 32.4267 16.1148 31.62 16.1148 30.7H19.3348C19.3348 31.2333 19.5282 31.6467 19.9148 31.94C20.3015 32.2333 20.8548 32.38 21.5748 32.38C22.3082 32.38 22.8882 32.2467 23.3148 31.98C23.7415 31.7 23.9548 31.3267 23.9548 30.86C23.9548 30.4467 23.8482 30.1267 23.6348 29.9C23.4348 29.6733 23.0882 29.5133 22.5948 29.42L20.3348 28.96C19.0148 28.6933 18.0148 28.1867 17.3348 27.44C16.6682 26.6933 16.3348 25.7133 16.3348 24.5ZM36.1423 35.24C34.6623 35.24 33.3823 34.9333 32.3023 34.32C31.2223 33.6933 30.389 32.8133 29.8023 31.68C29.2157 30.5333 28.9223 29.18 28.9223 27.62C28.9223 26.0733 29.229 24.7267 29.8423 23.58C30.4557 22.4333 31.3157 21.5467 32.4223 20.92C33.529 20.28 34.8157 19.96 36.2823 19.96C37.5223 19.96 38.6223 20.1867 39.5823 20.64C40.5557 21.08 41.349 21.7067 41.9623 22.52C42.5757 23.3333 42.9557 24.2933 43.1023 25.4H39.6823C39.469 24.6533 39.0557 24.08 38.4423 23.68C37.8423 23.28 37.0957 23.08 36.2023 23.08C35.4023 23.08 34.709 23.26 34.1223 23.62C33.549 23.98 33.109 24.5 32.8023 25.18C32.4957 25.8467 32.3423 26.6533 32.3423 27.6C32.3423 28.52 32.4957 29.32 32.8023 30C33.1223 30.68 33.569 31.2067 34.1423 31.58C34.729 31.94 35.4157 32.12 36.2023 32.12C37.109 32.12 37.8757 31.9133 38.5023 31.5C39.1423 31.0733 39.5623 30.4933 39.7623 29.76H43.1223C42.949 30.8533 42.5423 31.8133 41.9023 32.64C41.2757 33.4667 40.469 34.1067 39.4823 34.56C38.4957 35.0133 37.3823 35.24 36.1423 35.24ZM46.5261 35.26C46.0194 35.26 45.5861 35.0867 45.2261 34.74C44.8661 34.38 44.6861 33.9533 44.6861 33.46C44.6861 32.9533 44.8661 32.5267 45.2261 32.18C45.5861 31.82 46.0194 31.64 46.5261 31.64C47.0194 31.64 47.4461 31.82 47.8061 32.18C48.1794 32.5267 48.3661 32.9533 48.3661 33.46C48.3661 33.9533 48.1794 34.38 47.8061 34.74C47.4461 35.0867 47.0194 35.26 46.5261 35.26Z" fill="#FBF3FF"/>
<rect x="1.5" y="46" width="28" height="4" fill="#FBF3FF"/>
</svg>
