<svg width="127" height="25" viewBox="0 0 127 25" fill="none" xmlns="http://www.w3.org/2000/svg">
<path d="M47.4409 0.4375H49.8578V23.8836H47.4409V20.6603C46.8425 21.7635 46.0196 22.654 44.9723 23.332C43.9365 23.9985 42.7051 24.3318 41.278 24.3318C40.0236 24.3318 38.8497 24.0962 37.7563 23.6251C36.663 23.1539 35.6963 22.5047 34.8561 21.6773C34.0275 20.8384 33.3773 19.8731 32.9054 18.7814C32.4336 17.6897 32.1976 16.5176 32.1976 15.2651C32.1976 14.0125 32.4336 12.8404 32.9054 11.7487C33.3773 10.6455 34.0275 9.68021 34.8561 8.85283C35.6963 8.01395 36.663 7.35894 37.7563 6.88779C38.8497 6.41664 40.0236 6.18107 41.278 6.18107C42.7051 6.18107 43.9365 6.52006 44.9723 7.19806C46.0196 7.86456 46.8425 8.74366 47.4409 9.83535V0.4375ZM41.2953 21.9875C42.5267 21.9875 43.5855 21.6888 44.4717 21.0912C45.3579 20.4822 46.0369 19.6663 46.5087 18.6435C46.9921 17.6208 47.2338 16.4946 47.2338 15.2651C47.2338 14.001 46.9921 12.8633 46.5087 11.8521C46.0254 10.8294 45.3406 10.0192 44.4544 9.42165C43.5683 8.8241 42.5152 8.52532 41.2953 8.52532C40.0754 8.52532 38.9648 8.82984 37.9635 9.43889C36.9622 10.0364 36.1624 10.8466 35.5639 11.8693C34.9655 12.8921 34.6663 14.024 34.6663 15.2651C34.6663 16.5176 34.9712 17.6553 35.5812 18.678C36.1912 19.6893 36.9968 20.4937 37.998 21.0912C39.0108 21.6888 40.1099 21.9875 41.2953 21.9875Z" fill="white"/>
<path d="M60.2524 24.3318C58.6642 24.3318 57.2141 23.9239 55.9021 23.108C54.6016 22.2921 53.5601 21.2004 52.7775 19.8329C52.0064 18.4539 51.6208 16.9313 51.6208 15.2651C51.6208 14.001 51.8453 12.8231 52.2941 11.7314C52.7429 10.6283 53.3587 9.66297 54.1412 8.83559C54.9354 7.99671 55.856 7.3417 56.9033 6.87055C57.9506 6.39941 59.067 6.16383 60.2524 6.16383C61.5299 6.16383 62.7037 6.41664 63.7741 6.92227C64.8559 7.42789 65.7823 8.13461 66.5534 9.04244C67.336 9.95026 67.923 11.0132 68.3143 12.2313C68.7171 13.4494 68.8839 14.7652 68.8149 16.1786H54.1758C54.3139 17.2703 54.6591 18.2471 55.2116 19.1089C55.7755 19.9708 56.489 20.6545 57.3522 21.1602C58.2268 21.6543 59.1936 21.9071 60.2524 21.9186C61.4033 21.9186 62.439 21.6198 63.3597 21.0223C64.2919 20.4247 65.04 19.6031 65.6039 18.5573L68.0553 19.1262C67.3648 20.6545 66.3232 21.9071 64.9307 22.8839C63.5381 23.8492 61.9787 24.3318 60.2524 24.3318ZM54.1067 14.2308H66.3808C66.3002 13.1621 65.9722 12.1853 65.3968 11.3005C64.8329 10.4042 64.1021 9.6917 63.2044 9.1631C62.3067 8.623 61.3227 8.35295 60.2524 8.35295C59.1821 8.35295 58.2038 8.61725 57.3177 9.14586C56.4315 9.66297 55.7064 10.3697 55.1425 11.266C54.5786 12.1509 54.2333 13.1391 54.1067 14.2308Z" fill="white"/>
<path d="M70.7791 23.8836V6.64647H73.196V9.0252C73.8059 8.15185 74.6 7.45662 75.5783 6.9395C76.5565 6.42239 77.6211 6.16383 78.772 6.16383C79.4395 6.16383 80.084 6.25002 80.7054 6.42239L79.7214 8.81835C79.2381 8.66896 78.7662 8.59427 78.3059 8.59427C77.3736 8.59427 76.5163 8.8241 75.7337 9.28376C74.9626 9.74341 74.3469 10.3582 73.8865 11.1281C73.4262 11.8981 73.196 12.7542 73.196 13.6965V23.8836H70.7791Z" fill="white"/>
<path d="M95.1684 6.64647H97.5853V23.8836H95.1684L95.0821 20.6775C94.5182 21.7692 93.7298 22.654 92.7171 23.332C91.7043 23.9985 90.4959 24.3318 89.0918 24.3318C87.8259 24.3318 86.6405 24.0962 85.5356 23.6251C84.4308 23.1424 83.4583 22.4817 82.6182 21.6428C81.778 20.8039 81.122 19.8329 80.6502 18.7297C80.1783 17.6265 79.9424 16.4429 79.9424 15.1789C79.9424 13.9378 80.1726 12.7714 80.6329 11.6797C81.1048 10.588 81.7493 9.6285 82.5664 8.80112C83.395 7.97373 84.3502 7.33021 85.4321 6.87055C86.5254 6.39941 87.6935 6.16383 88.9365 6.16383C90.3751 6.16383 91.6295 6.50857 92.6998 7.19806C93.7701 7.87606 94.6218 8.76664 95.2548 9.86982L95.1684 6.64647ZM89.04 21.9875C90.2715 21.9875 91.3303 21.6888 92.2164 21.0912C93.1026 20.4822 93.7816 19.6663 94.2535 18.6435C94.7369 17.6208 94.9785 16.4946 94.9785 15.2651C94.9785 14.001 94.7369 12.8633 94.2535 11.8521C93.7701 10.8294 93.0854 10.0192 92.1992 9.42165C91.313 8.8241 90.26 8.52532 89.04 8.52532C87.8201 8.52532 86.7038 8.82984 85.691 9.43889C84.6897 10.0364 83.8899 10.8466 83.2914 11.8693C82.7045 12.8921 82.411 14.024 82.411 15.2651C82.411 16.5176 82.716 17.6553 83.326 18.678C83.9359 19.6893 84.7415 20.4937 85.7428 21.0912C86.7556 21.6888 87.8546 21.9875 89.04 21.9875Z" fill="white"/>
<path d="M109.035 9.1282H105.342L105.325 23.9522H102.908L102.925 9.1282H99.3676V6.71499H102.925L102.908 0.4375H105.325L105.342 6.71499H109.035V9.1282Z" fill="white"/>
<path d="M123.994 0.4375H111.649V2.81632H123.994V0.4375Z" fill="#20DFA6"/>
<path d="M117.768 24.4004C116.18 24.4004 114.73 23.9924 113.418 23.1765C112.118 22.3607 111.076 21.269 110.294 19.9015C109.522 18.5225 109.137 16.9999 109.137 15.3336C109.137 14.0696 109.361 12.8917 109.81 11.8C110.259 10.6968 110.875 9.73156 111.657 8.90418C112.451 8.06531 113.372 7.41029 114.419 6.93914C115.467 6.468 116.583 6.23242 117.768 6.23242C119.357 6.23242 120.801 6.64037 122.102 7.45626C123.414 8.27215 124.455 9.36958 125.226 10.7486C126.009 12.1275 126.4 13.6559 126.4 15.3336C126.4 16.5862 126.176 17.7583 125.727 18.85C125.278 19.9417 124.656 20.907 123.862 21.7459C123.08 22.5732 122.165 23.2225 121.118 23.6937C120.082 24.1648 118.965 24.4004 117.768 24.4004ZM117.768 21.9872C118.942 21.9872 119.995 21.6827 120.928 21.0736C121.871 20.4531 122.614 19.6372 123.155 18.6259C123.707 17.6147 123.983 16.5173 123.983 15.3336C123.983 14.127 123.707 13.0181 123.155 12.0069C122.602 10.9841 121.854 10.1682 120.91 9.55919C119.978 8.95015 118.931 8.64562 117.768 8.64562C116.595 8.64562 115.536 8.95589 114.592 9.57643C113.66 10.1855 112.918 10.9956 112.365 12.0069C111.824 13.0181 111.554 14.127 111.554 15.3336C111.554 16.5747 111.836 17.7009 112.4 18.7121C112.964 19.7119 113.717 20.5105 114.661 21.1081C115.605 21.6942 116.641 21.9872 117.768 21.9872Z" fill="white"/>
<path d="M0 23.8836V0.400391H14.1385V2.81359H2.41683V9.74918H12.4812V12.1624H2.41683V23.8836H0Z" fill="white"/>
<path d="M22.086 24.3318C20.4978 24.3318 19.0477 23.9239 17.7357 23.108C16.4352 22.2921 15.3936 21.2004 14.6111 19.8329C13.84 18.4539 13.4544 16.9313 13.4544 15.2651C13.4544 14.001 13.6788 12.8231 14.1277 11.7314C14.5765 10.6283 15.1922 9.66299 15.9748 8.83561C16.7689 7.99673 17.6896 7.34172 18.7369 6.87057C19.7842 6.39942 20.9006 6.16385 22.086 6.16385C23.3634 6.16385 24.5373 6.41666 25.6076 6.92228C26.6895 7.4279 27.6159 8.13463 28.387 9.04245C29.1696 9.95028 29.7565 11.0132 30.1478 12.2313C30.5506 13.4494 30.7175 14.7652 30.6485 16.1786H16.0094C16.1475 17.2703 16.4927 18.2471 17.0452 19.109C17.6091 19.9708 18.3226 20.6546 19.1858 21.1602C20.0604 21.6543 21.0272 21.9071 22.086 21.9186C23.2368 21.9186 24.2726 21.6198 25.1933 21.0223C26.1255 20.4247 26.8736 19.6031 27.4375 18.5574L29.8889 19.1262C29.1984 20.6546 28.1568 21.9071 26.7643 22.8839C25.3717 23.8492 23.8123 24.3318 22.086 24.3318ZM15.9403 14.2308H28.2144C28.1338 13.1621 27.8058 12.1854 27.2304 11.3005C26.6664 10.4042 25.9356 9.69172 25.038 9.16311C24.1403 8.62302 23.1563 8.35297 22.086 8.35297C21.0157 8.35297 20.0374 8.61727 19.1512 9.14587C18.2651 9.66299 17.54 10.3697 16.9761 11.266C16.4122 12.1509 16.0669 13.1392 15.9403 14.2308Z" fill="white"/>
</svg>
